<svg xmlns="http://www.w3.org/2000/svg" viewBox="0 0 229.584 57.479">
  <g>
    <path d="M53.5,36.193v28.16q-7.95,5.8-20.043,5.8-13.417,0-21.783-7.7T3.313,41.494q0-13.086,8.738-20.954t22.155-7.869A35.738,35.738,0,0,1,50.522,16.15V28.905a32.444,32.444,0,0,0-16.316-4.556q-7.869,0-12.506,4.68T17.062,41.494q0,7.869,4.555,12.506t12.424,4.638a23.683,23.683,0,0,0,7.04-1.076V47.043H32.053V36.193Z" transform="translate(-3.313 -12.671)" fill="#1e1e1e"/>
    <path d="M75.452,27.5v7.785A12.031,12.031,0,0,1,79.3,29.443a9.6,9.6,0,0,1,6.254-2.2,11.892,11.892,0,0,1,3.147.332V39.009a10.836,10.836,0,0,0-4.556-.911,7.823,7.823,0,0,0-6.294,2.858,11.383,11.383,0,0,0-2.4,7.578V69.488H63.36L63.442,27.5Z" transform="translate(-3.313 -12.671)" fill="#1e1e1e"/>
    <path d="M95.246,40.417V29.567q4.969-2.814,14.329-2.816,8.944,0,13.334,3.852t4.39,11.968V69.488H115.455V64.353q-2.65,5.385-10.435,5.384-6.13,0-9.567-3.479a11.871,11.871,0,0,1-3.437-8.7,11.114,11.114,0,0,1,4.431-9.4q4.43-3.354,13.128-3.354h5.3v-2.9q0-5.3-7.04-5.3A22.48,22.48,0,0,0,95.246,40.417Zm19.629,11.844h-3.893a7.4,7.4,0,0,0-4.72,1.325,4.16,4.16,0,0,0-1.657,3.4q0,4.224,4.887,4.224a5.055,5.055,0,0,0,3.975-1.574,6.223,6.223,0,0,0,1.408-4.307Z" transform="translate(-3.313 -12.671)" fill="#1e1e1e"/>
    <path d="M147.01,48.617q.33,5.549,3.313,8.613a10.476,10.476,0,0,0,7.868,3.065,19.111,19.111,0,0,0,10.022-2.9V67.5a24.336,24.336,0,0,1-11.761,2.651q-9.441,0-15.571-6t-6.129-15.529A22.149,22.149,0,0,1,140.881,33q5.964-6.168,16.317-6.17a23.671,23.671,0,0,1,11.015,2.4V39.589a18.122,18.122,0,0,0-9.773-2.733,11.344,11.344,0,0,0-8.2,3.023Q147.092,42.9,147.01,48.617Z" transform="translate(-3.313 -12.671)" fill="#1e1e1e"/>
    <path d="M208.63,56.982v10.1Q204.323,69.9,195.461,69.9q-10.353,0-16.108-6.005T173.6,48.451q0-10.02,5.591-15.695a18.6,18.6,0,0,1,13.79-5.673q8.448,0,13.335,4.928t4.886,14.7a53.977,53.977,0,0,1-.662,6.543H185.854a10.168,10.168,0,0,0,4.307,5.383,13.676,13.676,0,0,0,7.371,1.905A17.911,17.911,0,0,0,208.63,56.982Zm-8.7-12.341v-.994q-.581-7.371-6.46-7.371a7.263,7.263,0,0,0-5.135,2.112,11.017,11.017,0,0,0-2.982,6.253Z" transform="translate(-3.313 -12.671)" fill="#1e1e1e"/>
    <path d="M220.308,68a7.4,7.4,0,1,1,5.218,2.153A7.1,7.1,0,0,1,220.308,68Z" transform="translate(-3.313 -12.671)" fill="#1e1e1e"/>
  </g>
</svg>
