<?xml version="1.0" encoding="UTF-8"?>

<svg xmlns="http://www.w3.org/2000/svg" viewBox="0 0 408 408">
  <g>
    <rect width="408" height="408" style="fill: #4c566a"/>
    <path d="M128.68,158.76q-15.95-5.46-26.17-5.47-6.42,0-10.11,2.5A8.2,8.2,0,0,0,88.71,163q0,6.68,7.14,10.35t22.6,8a219.94,219.94,0,0,1,29,10.11,53.56,53.56,0,0,1,19.86,15.59q8.44,10.47,8.45,27.6,0,17.37-9.16,29.38t-24.74,18A97.23,97.23,0,0,1,107,288a133.7,133.7,0,0,1-42.94-7.26,119.82,119.82,0,0,1-37.24-19.86l18.56-37.59a111.17,111.17,0,0,0,30.81,18.43q18.21,7.5,31.29,7.5,8.08,0,12.61-3.09a10.05,10.05,0,0,0,4.52-8.81q0-6.9-7.38-10.58T94.42,219a208.46,208.46,0,0,1-28.79-9.39,51.16,51.16,0,0,1-19.74-15.11q-8.34-10.23-8.33-26.89,0-16.17,8.57-28.19t24.14-18.44q15.58-6.42,36.29-6.42a134.14,134.14,0,0,1,37.35,5.35A123.47,123.47,0,0,1,176.26,134L158,172.08A160,160,0,0,0,128.68,158.76Z" style="fill: #fff"/>
    <path d="M180.54,117.82h53.05l44.73,92.54,44.49-92.54h53.05V284.59H332.33v-99l-38.07,82.56H262.14l-38.06-82.56v99H180.54Z" style="fill: #fff"/>
  </g>
</svg>


